<mxfile host="app.diagrams.net" modified="2024-02-14T16:26:24.393Z" agent="Mozilla/5.0 (X11; Linux x86_64; rv:109.0) Gecko/20100101 Firefox/115.0" etag="YF9GzjFOzcV9kDRisxVi" version="23.1.4" type="device">
  <diagram name="Página-1" id="EmJALiMdoSDPTrJ1RiPm">
    <mxGraphModel dx="1748" dy="882" grid="1" gridSize="10" guides="1" tooltips="1" connect="1" arrows="1" fold="1" page="1" pageScale="1" pageWidth="827" pageHeight="1169" background="#E6FFCC" math="0" shadow="0">
      <root>
        <mxCell id="0" />
        <mxCell id="1" parent="0" />
        <mxCell id="dgO8ZEKT8CytuHklvyCe-30" style="edgeStyle=orthogonalEdgeStyle;rounded=0;orthogonalLoop=1;jettySize=auto;html=1;exitX=1;exitY=1;exitDx=0;exitDy=0;entryX=0.5;entryY=1;entryDx=0;entryDy=0;" parent="1" source="dgO8ZEKT8CytuHklvyCe-1" target="dgO8ZEKT8CytuHklvyCe-29" edge="1">
          <mxGeometry relative="1" as="geometry" />
        </mxCell>
        <mxCell id="faT8WUL74M3lDR5FoMaE-29" style="edgeStyle=orthogonalEdgeStyle;rounded=0;orthogonalLoop=1;jettySize=auto;html=1;exitX=0;exitY=0.5;exitDx=0;exitDy=0;entryX=0.25;entryY=0;entryDx=0;entryDy=0;" parent="1" source="dgO8ZEKT8CytuHklvyCe-1" target="dgO8ZEKT8CytuHklvyCe-34" edge="1">
          <mxGeometry relative="1" as="geometry" />
        </mxCell>
        <mxCell id="faT8WUL74M3lDR5FoMaE-41" style="edgeStyle=orthogonalEdgeStyle;rounded=0;orthogonalLoop=1;jettySize=auto;html=1;exitX=0;exitY=1;exitDx=0;exitDy=0;entryX=0.75;entryY=0;entryDx=0;entryDy=0;" parent="1" source="dgO8ZEKT8CytuHklvyCe-1" target="dgO8ZEKT8CytuHklvyCe-34" edge="1">
          <mxGeometry relative="1" as="geometry" />
        </mxCell>
        <mxCell id="dgO8ZEKT8CytuHklvyCe-1" value="&lt;div style=&quot;font-size: 23px;&quot;&gt;&lt;font style=&quot;font-size: 23px;&quot;&gt;Gestión&lt;/font&gt;&lt;/div&gt;&lt;div style=&quot;font-size: 23px;&quot;&gt;&lt;font style=&quot;font-size: 23px;&quot;&gt;&amp;nbsp;del&lt;/font&gt;&lt;/div&gt;&lt;div style=&quot;font-size: 23px;&quot;&gt;&lt;font style=&quot;font-size: 23px;&quot;&gt;&amp;nbsp;videoclub&lt;/font&gt;&lt;/div&gt;" style="ellipse;whiteSpace=wrap;html=1;aspect=fixed;" parent="1" vertex="1">
          <mxGeometry x="334" y="505" width="160" height="160" as="geometry" />
        </mxCell>
        <mxCell id="dgO8ZEKT8CytuHklvyCe-8" style="rounded=0;orthogonalLoop=1;jettySize=auto;html=1;exitX=0.5;exitY=1;exitDx=0;exitDy=0;entryX=0.5;entryY=0;entryDx=0;entryDy=0;edgeStyle=orthogonalEdgeStyle;" parent="1" source="dgO8ZEKT8CytuHklvyCe-3" target="dgO8ZEKT8CytuHklvyCe-1" edge="1">
          <mxGeometry relative="1" as="geometry">
            <Array as="points">
              <mxPoint x="120" y="440" />
              <mxPoint x="414" y="440" />
            </Array>
          </mxGeometry>
        </mxCell>
        <mxCell id="dgO8ZEKT8CytuHklvyCe-12" style="rounded=0;orthogonalLoop=1;jettySize=auto;html=1;exitX=1;exitY=1;exitDx=0;exitDy=0;entryX=1;entryY=0;entryDx=0;entryDy=0;startArrow=classic;startFill=1;endArrow=none;endFill=0;edgeStyle=orthogonalEdgeStyle;" parent="1" source="dgO8ZEKT8CytuHklvyCe-3" target="dgO8ZEKT8CytuHklvyCe-1" edge="1">
          <mxGeometry relative="1" as="geometry">
            <Array as="points">
              <mxPoint x="200" y="360" />
              <mxPoint x="471" y="360" />
            </Array>
          </mxGeometry>
        </mxCell>
        <mxCell id="dgO8ZEKT8CytuHklvyCe-14" style="rounded=0;orthogonalLoop=1;jettySize=auto;html=1;exitX=0;exitY=1;exitDx=0;exitDy=0;entryX=0;entryY=0;entryDx=0;entryDy=0;edgeStyle=orthogonalEdgeStyle;" parent="1" source="dgO8ZEKT8CytuHklvyCe-3" target="dgO8ZEKT8CytuHklvyCe-1" edge="1">
          <mxGeometry relative="1" as="geometry">
            <Array as="points">
              <mxPoint x="40" y="528" />
              <mxPoint x="320" y="528" />
            </Array>
          </mxGeometry>
        </mxCell>
        <mxCell id="dgO8ZEKT8CytuHklvyCe-28" style="edgeStyle=orthogonalEdgeStyle;rounded=0;orthogonalLoop=1;jettySize=auto;html=1;exitX=1;exitY=0.5;exitDx=0;exitDy=0;entryX=0;entryY=0.5;entryDx=0;entryDy=0;" parent="1" source="dgO8ZEKT8CytuHklvyCe-3" target="dgO8ZEKT8CytuHklvyCe-26" edge="1">
          <mxGeometry relative="1" as="geometry" />
        </mxCell>
        <mxCell id="dgO8ZEKT8CytuHklvyCe-3" value="&lt;font style=&quot;font-size: 21px;&quot;&gt;Clientes&lt;/font&gt;" style="rounded=0;whiteSpace=wrap;html=1;" parent="1" vertex="1">
          <mxGeometry x="40" y="120" width="160" height="80" as="geometry" />
        </mxCell>
        <mxCell id="faT8WUL74M3lDR5FoMaE-9" style="edgeStyle=orthogonalEdgeStyle;rounded=0;orthogonalLoop=1;jettySize=auto;html=1;exitX=0.5;exitY=0;exitDx=0;exitDy=0;entryX=0.5;entryY=1;entryDx=0;entryDy=0;" parent="1" source="dgO8ZEKT8CytuHklvyCe-4" target="dgO8ZEKT8CytuHklvyCe-1" edge="1">
          <mxGeometry relative="1" as="geometry" />
        </mxCell>
        <mxCell id="dgO8ZEKT8CytuHklvyCe-4" value="&lt;font style=&quot;font-size: 21px;&quot;&gt;Proveedores&lt;br&gt;&lt;/font&gt;" style="rounded=0;whiteSpace=wrap;html=1;" parent="1" vertex="1">
          <mxGeometry x="334" y="750" width="160" height="80" as="geometry" />
        </mxCell>
        <mxCell id="dgO8ZEKT8CytuHklvyCe-7" value="&lt;div&gt;Alquiler peliculas&lt;/div&gt;" style="text;html=1;align=center;verticalAlign=middle;resizable=0;points=[];autosize=1;strokeColor=none;fillColor=none;rotation=0;" parent="1" vertex="1">
          <mxGeometry x="160" y="420" width="110" height="30" as="geometry" />
        </mxCell>
        <mxCell id="dgO8ZEKT8CytuHklvyCe-9" value="&lt;div&gt;Comprar bonos&lt;/div&gt;" style="text;html=1;align=center;verticalAlign=middle;resizable=0;points=[];autosize=1;strokeColor=none;fillColor=none;rotation=0;" parent="1" vertex="1">
          <mxGeometry x="260" y="140" width="110" height="30" as="geometry" />
        </mxCell>
        <mxCell id="dgO8ZEKT8CytuHklvyCe-11" value="Comprobar credito" style="text;html=1;align=center;verticalAlign=middle;resizable=0;points=[];autosize=1;strokeColor=none;fillColor=none;rotation=0;" parent="1" vertex="1">
          <mxGeometry x="520" y="620" width="120" height="30" as="geometry" />
        </mxCell>
        <mxCell id="dgO8ZEKT8CytuHklvyCe-13" value="&lt;div&gt;Emitir comprobante&lt;/div&gt;" style="text;html=1;align=center;verticalAlign=middle;resizable=0;points=[];autosize=1;strokeColor=none;fillColor=none;rotation=0;" parent="1" vertex="1">
          <mxGeometry x="240" y="340" width="130" height="30" as="geometry" />
        </mxCell>
        <mxCell id="dgO8ZEKT8CytuHklvyCe-15" value="&lt;div&gt;Devoluciones&lt;/div&gt;" style="text;html=1;align=center;verticalAlign=middle;resizable=0;points=[];autosize=1;strokeColor=none;fillColor=none;rotation=0;" parent="1" vertex="1">
          <mxGeometry x="90" y="505" width="100" height="30" as="geometry" />
        </mxCell>
        <mxCell id="dgO8ZEKT8CytuHklvyCe-17" value="&lt;div&gt;Pedidos&lt;/div&gt;&lt;div&gt;&amp;nbsp;peliculas&lt;/div&gt;" style="text;html=1;align=center;verticalAlign=middle;resizable=0;points=[];autosize=1;strokeColor=none;fillColor=none;rotation=0;" parent="1" vertex="1">
          <mxGeometry x="510" y="840" width="70" height="40" as="geometry" />
        </mxCell>
        <mxCell id="dgO8ZEKT8CytuHklvyCe-21" value="&lt;div&gt;Emitir&lt;/div&gt;&lt;div&gt;&amp;nbsp;factura&lt;/div&gt;" style="text;html=1;align=center;verticalAlign=middle;resizable=0;points=[];autosize=1;strokeColor=none;fillColor=none;rotation=0;" parent="1" vertex="1">
          <mxGeometry x="290" y="840" width="60" height="40" as="geometry" />
        </mxCell>
        <mxCell id="dgO8ZEKT8CytuHklvyCe-24" value="&lt;div&gt;Entrega&lt;/div&gt;&lt;div&gt;&amp;nbsp;peliculas&lt;/div&gt;" style="text;html=1;align=center;verticalAlign=middle;resizable=0;points=[];autosize=1;strokeColor=none;fillColor=none;rotation=0;" parent="1" vertex="1">
          <mxGeometry x="404" y="700" width="70" height="40" as="geometry" />
        </mxCell>
        <mxCell id="dgO8ZEKT8CytuHklvyCe-31" style="edgeStyle=orthogonalEdgeStyle;rounded=0;orthogonalLoop=1;jettySize=auto;html=1;exitX=1;exitY=0.5;exitDx=0;exitDy=0;entryX=0.5;entryY=0;entryDx=0;entryDy=0;" parent="1" source="dgO8ZEKT8CytuHklvyCe-26" target="dgO8ZEKT8CytuHklvyCe-29" edge="1">
          <mxGeometry relative="1" as="geometry" />
        </mxCell>
        <mxCell id="dgO8ZEKT8CytuHklvyCe-26" value="&lt;div&gt;Compra&lt;/div&gt;&lt;div&gt;&amp;nbsp;de &lt;br&gt;&lt;/div&gt;&lt;div&gt;bonos&lt;/div&gt;" style="ellipse;whiteSpace=wrap;html=1;aspect=fixed;" parent="1" vertex="1">
          <mxGeometry x="430" y="100" width="120" height="120" as="geometry" />
        </mxCell>
        <mxCell id="dgO8ZEKT8CytuHklvyCe-29" value="Creditos&lt;br&gt;&lt;div&gt;cliente&lt;br&gt;&lt;/div&gt;" style="shape=process;whiteSpace=wrap;html=1;backgroundOutline=1;" parent="1" vertex="1">
          <mxGeometry x="620" y="350" width="120" height="40" as="geometry" />
        </mxCell>
        <mxCell id="dgO8ZEKT8CytuHklvyCe-33" value="Acumular" style="text;html=1;align=center;verticalAlign=middle;resizable=0;points=[];autosize=1;strokeColor=none;fillColor=none;" parent="1" vertex="1">
          <mxGeometry x="590" y="140" width="70" height="30" as="geometry" />
        </mxCell>
        <mxCell id="dgO8ZEKT8CytuHklvyCe-34" value="Stock peliculas" style="shape=process;whiteSpace=wrap;html=1;backgroundOutline=1;" parent="1" vertex="1">
          <mxGeometry x="60" y="710" width="120" height="40" as="geometry" />
        </mxCell>
        <mxCell id="faT8WUL74M3lDR5FoMaE-3" style="edgeStyle=orthogonalEdgeStyle;rounded=0;orthogonalLoop=1;jettySize=auto;html=1;exitX=1;exitY=0.5;exitDx=0;exitDy=0;entryX=0;entryY=0.5;entryDx=0;entryDy=0;" parent="1" source="faT8WUL74M3lDR5FoMaE-1" target="faT8WUL74M3lDR5FoMaE-2" edge="1">
          <mxGeometry relative="1" as="geometry" />
        </mxCell>
        <mxCell id="faT8WUL74M3lDR5FoMaE-21" style="edgeStyle=orthogonalEdgeStyle;rounded=0;orthogonalLoop=1;jettySize=auto;html=1;exitX=0.5;exitY=1;exitDx=0;exitDy=0;entryX=0.5;entryY=1;entryDx=0;entryDy=0;" parent="1" source="faT8WUL74M3lDR5FoMaE-1" target="faT8WUL74M3lDR5FoMaE-2" edge="1">
          <mxGeometry relative="1" as="geometry">
            <Array as="points">
              <mxPoint x="120" y="1080" />
              <mxPoint x="414" y="1080" />
            </Array>
          </mxGeometry>
        </mxCell>
        <mxCell id="faT8WUL74M3lDR5FoMaE-23" style="edgeStyle=orthogonalEdgeStyle;rounded=0;orthogonalLoop=1;jettySize=auto;html=1;exitX=0.75;exitY=1;exitDx=0;exitDy=0;entryX=0;entryY=1;entryDx=0;entryDy=0;" parent="1" source="faT8WUL74M3lDR5FoMaE-1" target="faT8WUL74M3lDR5FoMaE-2" edge="1">
          <mxGeometry relative="1" as="geometry">
            <Array as="points">
              <mxPoint x="160" y="1040" />
              <mxPoint x="372" y="1040" />
            </Array>
          </mxGeometry>
        </mxCell>
        <mxCell id="faT8WUL74M3lDR5FoMaE-27" style="edgeStyle=orthogonalEdgeStyle;rounded=0;orthogonalLoop=1;jettySize=auto;html=1;exitX=0.25;exitY=1;exitDx=0;exitDy=0;entryX=0.5;entryY=0;entryDx=0;entryDy=0;" parent="1" source="faT8WUL74M3lDR5FoMaE-1" target="dgO8ZEKT8CytuHklvyCe-26" edge="1">
          <mxGeometry relative="1" as="geometry">
            <mxPoint x="760" y="294" as="targetPoint" />
            <Array as="points">
              <mxPoint x="80" y="1120" />
              <mxPoint x="770" y="1120" />
              <mxPoint x="770" y="80" />
              <mxPoint x="490" y="80" />
            </Array>
          </mxGeometry>
        </mxCell>
        <mxCell id="faT8WUL74M3lDR5FoMaE-36" style="edgeStyle=orthogonalEdgeStyle;rounded=0;orthogonalLoop=1;jettySize=auto;html=1;exitX=0.5;exitY=0;exitDx=0;exitDy=0;entryX=0.5;entryY=1;entryDx=0;entryDy=0;" parent="1" source="faT8WUL74M3lDR5FoMaE-1" target="dgO8ZEKT8CytuHklvyCe-34" edge="1">
          <mxGeometry relative="1" as="geometry" />
        </mxCell>
        <mxCell id="faT8WUL74M3lDR5FoMaE-1" value="&lt;div style=&quot;font-size: 13px;&quot;&gt;&lt;font style=&quot;font-size: 21px;&quot;&gt;Dirección Videoclub&lt;/font&gt;&lt;/div&gt;" style="rounded=0;whiteSpace=wrap;html=1;" parent="1" vertex="1">
          <mxGeometry x="40" y="920" width="160" height="80" as="geometry" />
        </mxCell>
        <mxCell id="faT8WUL74M3lDR5FoMaE-38" style="edgeStyle=orthogonalEdgeStyle;rounded=0;orthogonalLoop=1;jettySize=auto;html=1;exitX=0.5;exitY=0;exitDx=0;exitDy=0;entryX=0.5;entryY=1;entryDx=0;entryDy=0;" parent="1" source="faT8WUL74M3lDR5FoMaE-2" target="dgO8ZEKT8CytuHklvyCe-4" edge="1">
          <mxGeometry relative="1" as="geometry" />
        </mxCell>
        <mxCell id="faT8WUL74M3lDR5FoMaE-39" style="edgeStyle=orthogonalEdgeStyle;rounded=0;orthogonalLoop=1;jettySize=auto;html=1;exitX=1;exitY=0.5;exitDx=0;exitDy=0;entryX=1;entryY=0.5;entryDx=0;entryDy=0;" parent="1" source="faT8WUL74M3lDR5FoMaE-2" target="dgO8ZEKT8CytuHklvyCe-4" edge="1">
          <mxGeometry relative="1" as="geometry">
            <Array as="points">
              <mxPoint x="520" y="960" />
              <mxPoint x="520" y="790" />
            </Array>
          </mxGeometry>
        </mxCell>
        <mxCell id="faT8WUL74M3lDR5FoMaE-2" value="&lt;div&gt;Gestión&lt;br&gt;&lt;/div&gt;&lt;div&gt;&amp;nbsp;de&amp;nbsp;&lt;/div&gt;&lt;div&gt;proveedores&lt;/div&gt;" style="ellipse;whiteSpace=wrap;html=1;aspect=fixed;" parent="1" vertex="1">
          <mxGeometry x="354" y="900" width="120" height="120" as="geometry" />
        </mxCell>
        <mxCell id="faT8WUL74M3lDR5FoMaE-11" value="&lt;div&gt;Pago&lt;/div&gt;&lt;div&gt;facturas&lt;/div&gt;" style="text;html=1;align=center;verticalAlign=middle;resizable=0;points=[];autosize=1;strokeColor=none;fillColor=none;rotation=0;" parent="1" vertex="1">
          <mxGeometry x="404" y="840" width="70" height="40" as="geometry" />
        </mxCell>
        <mxCell id="faT8WUL74M3lDR5FoMaE-20" style="edgeStyle=orthogonalEdgeStyle;rounded=0;orthogonalLoop=1;jettySize=auto;html=1;exitX=0.25;exitY=1;exitDx=0;exitDy=0;entryX=0;entryY=0;entryDx=0;entryDy=0;" parent="1" target="faT8WUL74M3lDR5FoMaE-2" edge="1">
          <mxGeometry relative="1" as="geometry">
            <mxPoint x="344" y="830" as="sourcePoint" />
            <mxPoint x="344.52" y="913.2" as="targetPoint" />
            <Array as="points">
              <mxPoint x="344" y="918" />
            </Array>
          </mxGeometry>
        </mxCell>
        <mxCell id="faT8WUL74M3lDR5FoMaE-22" value="Datos proveedores" style="text;html=1;align=center;verticalAlign=middle;resizable=0;points=[];autosize=1;strokeColor=none;fillColor=none;" parent="1" vertex="1">
          <mxGeometry x="214" y="1060" width="120" height="30" as="geometry" />
        </mxCell>
        <mxCell id="faT8WUL74M3lDR5FoMaE-24" value="Pedidos proveedores" style="text;html=1;align=center;verticalAlign=middle;resizable=0;points=[];autosize=1;strokeColor=none;fillColor=none;" parent="1" vertex="1">
          <mxGeometry x="204" y="1020" width="140" height="30" as="geometry" />
        </mxCell>
        <mxCell id="faT8WUL74M3lDR5FoMaE-28" value="Establecer datos bono" style="text;html=1;align=center;verticalAlign=middle;resizable=0;points=[];autosize=1;strokeColor=none;fillColor=none;" parent="1" vertex="1">
          <mxGeometry x="430" y="1100" width="140" height="30" as="geometry" />
        </mxCell>
        <mxCell id="faT8WUL74M3lDR5FoMaE-30" value="&lt;div&gt;Informe&amp;nbsp;&lt;/div&gt;&lt;div&gt;demandas&lt;/div&gt;" style="text;html=1;align=center;verticalAlign=middle;resizable=0;points=[];autosize=1;strokeColor=none;fillColor=none;" parent="1" vertex="1">
          <mxGeometry x="210" y="553" width="80" height="40" as="geometry" />
        </mxCell>
        <mxCell id="faT8WUL74M3lDR5FoMaE-32" style="edgeStyle=orthogonalEdgeStyle;rounded=0;orthogonalLoop=1;jettySize=auto;html=1;exitX=1;exitY=0.5;exitDx=0;exitDy=0;entryX=1;entryY=1;entryDx=0;entryDy=0;" parent="1" source="dgO8ZEKT8CytuHklvyCe-1" target="dgO8ZEKT8CytuHklvyCe-26" edge="1">
          <mxGeometry relative="1" as="geometry" />
        </mxCell>
        <mxCell id="faT8WUL74M3lDR5FoMaE-33" value="&lt;div&gt;Facturación&lt;/div&gt;&lt;div&gt;mensual&lt;br&gt;&lt;/div&gt;" style="text;html=1;align=center;verticalAlign=middle;resizable=0;points=[];autosize=1;strokeColor=none;fillColor=none;" parent="1" vertex="1">
          <mxGeometry x="520" y="415" width="90" height="40" as="geometry" />
        </mxCell>
        <mxCell id="faT8WUL74M3lDR5FoMaE-37" value="Consultar" style="text;html=1;align=center;verticalAlign=middle;resizable=0;points=[];autosize=1;strokeColor=none;fillColor=none;" parent="1" vertex="1">
          <mxGeometry x="120" y="820" width="70" height="30" as="geometry" />
        </mxCell>
        <mxCell id="faT8WUL74M3lDR5FoMaE-40" value="Tipo pago" style="text;html=1;align=center;verticalAlign=middle;resizable=0;points=[];autosize=1;strokeColor=none;fillColor=none;" parent="1" vertex="1">
          <mxGeometry x="220" y="938" width="80" height="30" as="geometry" />
        </mxCell>
        <mxCell id="faT8WUL74M3lDR5FoMaE-42" value="Estado peliculas" style="text;html=1;align=center;verticalAlign=middle;resizable=0;points=[];autosize=1;strokeColor=none;fillColor=none;" parent="1" vertex="1">
          <mxGeometry x="185" y="618" width="110" height="30" as="geometry" />
        </mxCell>
        <mxCell id="Y8hWC7qyQwwS0O6GEbPZ-2" value="Facturas" style="shape=process;whiteSpace=wrap;html=1;backgroundOutline=1;" vertex="1" parent="1">
          <mxGeometry x="550" y="1000" width="120" height="40" as="geometry" />
        </mxCell>
        <mxCell id="Y8hWC7qyQwwS0O6GEbPZ-3" style="edgeStyle=orthogonalEdgeStyle;rounded=0;orthogonalLoop=1;jettySize=auto;html=1;exitX=0;exitY=0.5;exitDx=0;exitDy=0;startArrow=classic;startFill=1;endArrow=none;endFill=0;entryX=1;entryY=1;entryDx=0;entryDy=0;" edge="1" parent="1" source="Y8hWC7qyQwwS0O6GEbPZ-2" target="faT8WUL74M3lDR5FoMaE-2">
          <mxGeometry relative="1" as="geometry">
            <mxPoint x="460" y="1000" as="targetPoint" />
            <Array as="points">
              <mxPoint x="456" y="1020" />
              <mxPoint x="456" y="1002" />
            </Array>
          </mxGeometry>
        </mxCell>
      </root>
    </mxGraphModel>
  </diagram>
</mxfile>
